<?xml version="1.0" encoding="utf-8"?>
<!-- Generator: Adobe Illustrator 16.0.0, SVG Export Plug-In . SVG Version: 6.00 Build 0)  -->
<!DOCTYPE svg PUBLIC "-//W3C//DTD SVG 1.1//EN" "http://www.w3.org/Graphics/SVG/1.1/DTD/svg11.dtd">
<svg version="1.1" id="图层_1" xmlns="http://www.w3.org/2000/svg" xmlns:xlink="http://www.w3.org/1999/xlink" x="0px" y="0px"
	 width="218.141px" height="69.774px" viewBox="0 0 218.141 69.774" enable-background="new 0 0 218.141 69.774"
	 xml:space="preserve">
<g>
	<path d="M24.696,18.114c1.487-1.487,2.232-2.639,2.232-3.456c0-0.479-0.288-1.067-0.864-1.764C25.488,12.199,25.2,11.61,25.2,11.13
		c0-0.479,0.299-0.72,0.9-0.72c0.6,0,1.883,0.385,3.852,1.152c1.967,0.768,3.431,1.681,4.392,2.736
		c0.959,1.057,1.44,2.064,1.44,3.024c0,0.961-0.133,1.717-0.396,2.268c-0.265,0.552-0.637,0.913-1.116,1.08
		c-0.48,0.169-1.285,0.637-2.412,1.404c-1.128,0.769-1.992,1.633-2.592,2.592c-0.601,0.96-0.9,1.848-0.9,2.664
		c0,0.816,0.36,2.4,1.08,4.752c0.959-0.288,1.775-1.104,2.448-2.448c0.24-0.527,0.456-0.792,0.648-0.792
		c0.191,0,0.288,0.349,0.288,1.044c0,0.697-0.169,1.537-0.504,2.52c-0.336,0.984-0.925,2.028-1.764,3.132
		c-0.84,1.104-1.668,2.196-2.484,3.276c-0.817,1.08-1.38,2.136-1.692,3.168c-0.313,1.033-0.468,2.725-0.468,5.076l0.288,8.568
		c0,4.271-0.385,6.408-1.152,6.408c-0.385,0-1.188-0.792-2.412-2.376s-1.836-3.456-1.836-5.616s0.383-5.208,1.152-9.144
		c-2.304,1.969-4.368,3.864-6.192,5.688c-0.432,0.432-0.913,0.648-1.44,0.648c-0.529,0-0.972-0.299-1.332-0.9
		c-0.36-0.6-0.54-1.464-0.54-2.592c0-1.127,0.167-1.991,0.504-2.592c0.335-0.6,1.104-1.332,2.304-2.196
		c5.519-3.936,8.28-7.967,8.28-12.096c0-0.432-0.025-0.864-0.072-1.296c-4.561,4.849-8.112,7.272-10.656,7.272
		c-1.584,0-2.376-1.055-2.376-3.168c0-1.055,0.263-1.584,0.792-1.584l0.72,0.072c0.383,0,0.767-0.144,1.152-0.432
		c0.384-0.288,1.32-1.284,2.808-2.988c1.487-1.703,3.408-4.02,5.76-6.948c-1.249-0.864-2.977-1.296-5.184-1.296l-3.024,0.144
		c-0.432,0-0.792-0.119-1.08-0.36c-0.288-0.24-0.432-0.528-0.432-0.864c0-0.72,0.587-1.428,1.764-2.124
		c1.176-0.695,2.652-1.044,4.428-1.044C20.688,16.242,22.871,16.866,24.696,18.114z M54.648,47.778
		c-1.008-2.255-1.512-3.539-1.512-3.852c0-0.312,0.095-0.468,0.288-0.468c0.479,0,1.584,0.504,3.312,1.512
		c1.728,1.008,3.179,2.353,4.356,4.032c1.176,1.681,1.764,3.456,1.764,5.328c0,0.959-0.192,1.715-0.576,2.268
		c-0.385,0.551-0.912,0.828-1.584,0.828c-1.008,0-1.8-0.36-2.376-1.08c-0.576-0.72-1.416-2.255-2.52-4.608
		c-3.36,0-6.132,0.265-8.316,0.792c-2.185,0.529-4.476,1.705-6.876,3.528c-1.488,1.152-2.7,1.728-3.636,1.728
		s-1.692-0.949-2.268-2.844c-0.576-1.896-0.864-3.179-0.864-3.852c0-0.671,0.335-0.959,1.008-0.864
		c0.671,0.097,1.343,0.144,2.016,0.144c1.584,0,3.071-0.443,4.464-1.332c1.392-0.888,2.184-2.724,2.376-5.508
		c-1.537,0.625-2.676,0.936-3.42,0.936c-0.745,0-1.681-0.659-2.808-1.98c-1.128-1.319-1.897-3.708-2.304-7.164
		c-0.408-3.456-0.612-5.963-0.612-7.524c0-1.559,0.288-2.34,0.864-2.34c0.576,0,1.68,1.033,3.312,3.096
		c1.968-1.152,4.08-2.328,6.336-3.528c0.191-2.351,0.288-4.32,0.288-5.904c0-3.696-0.576-5.544-1.728-5.544l-0.72,0.144
		c-0.432,0-0.648-0.6-0.648-1.8c0-1.199,1.008-1.8,3.024-1.8c0.911,0,2.016,0.48,3.312,1.44c1.296,0.96,2.027,1.825,2.196,2.592
		c0.168,0.769,0.252,1.944,0.252,3.528s-0.072,3.168-0.216,4.752c1.296-0.479,2.423-0.72,3.384-0.72c1.68,0,3.528,0.828,5.544,2.484
		c2.016,1.656,3.024,3.325,3.024,5.004c0,1.152-0.48,2.016-1.44,2.592c-0.576,0.336-1.404,1.249-2.484,2.736
		c-1.08,1.489-1.764,2.664-2.052,3.528c1.055,0.96,1.584,1.717,1.584,2.268c0,0.552-0.889,0.756-2.664,0.612
		c-0.769-0.047-1.717-0.072-2.844-0.072c-1.128,0-2.316,0.216-3.564,0.648l-0.864,5.832c0.911-0.144,1.836-0.216,2.772-0.216
		S53.304,47.346,54.648,47.778z M44.712,31.65l-4.392,2.016c-0.288,1.488-0.432,2.725-0.432,3.708c0,0.984,0.216,1.476,0.648,1.476
		c1.055,0,2.328-0.456,3.816-1.368C44.592,35.466,44.712,33.522,44.712,31.65z M50.04,34.458c-0.144,0.097-0.216,0.229-0.216,0.396
		c0,0.168,0.047,0.349,0.144,0.54c0.24-0.144,0.36-0.324,0.36-0.54S50.231,34.506,50.04,34.458z M53.856,26.97
		c-0.864,0.288-1.992,0.841-3.384,1.656c-0.192,1.632-0.288,2.761-0.288,3.384c0,0.625,0.167,1.08,0.504,1.368
		c0.335,0.288,0.576,0.432,0.72,0.432c0.432,0,1.127-0.731,2.088-2.196c0.959-1.463,1.44-2.531,1.44-3.204
		c0-0.672-0.108-1.104-0.324-1.296C54.396,26.923,54.144,26.875,53.856,26.97z"/>
	<path d="M102.168,28.914c-0.097-1.152-0.48-2.352-1.152-3.6c-0.192-0.335-0.288-0.623-0.288-0.864c0-0.527,0.767-1.319,2.304-2.376
		c6-4.176,9.468-7.031,10.404-8.568c0.936-1.536,1.404-2.556,1.404-3.06s-0.12-0.756-0.36-0.756c-0.241,0-0.601,0.313-1.08,0.936
		c-0.48,0.625-0.817,0.936-1.008,0.936c-0.192,0-0.288-0.167-0.288-0.504c0-2.4,1.32-3.6,3.96-3.6c1.44,0,2.796,0.336,4.068,1.008
		c1.271,0.673,1.908,1.561,1.908,2.664c0,0.385-0.133,0.828-0.396,1.332c-0.265,0.504-2.101,2.028-5.508,4.572
		c-3.409,2.544-5.76,4.128-7.056,4.752c-1.296,0.624-3.096,1.321-5.4,2.088c-0.72,0.241-1.08,0.529-1.08,0.864
		c0,0.625,0.936,1.296,2.808,2.016c2.304,0.864,3.456,2.592,3.456,5.184c0,2.592-0.3,5.208-0.9,7.848
		c-0.601,2.64-1.548,5.245-2.844,7.812c-1.296,2.568-2.149,4.057-2.556,4.464c-0.408,0.408-0.732,0.612-0.972,0.612
		c-0.816,0-1.224-0.983-1.224-2.952c0-0.528,0.06-1.68,0.18-3.456c0.12-1.775,0.372-2.664,0.756-2.664
		c0.144,0,0.383,0.216,0.72,0.648c0.672-1.248,1.248-3.012,1.728-5.292c0.479-2.279,0.72-3.984,0.72-5.112
		c0-1.127-0.192-2.099-0.576-2.916c-0.385-0.816-0.84-1.224-1.368-1.224c-0.529,0-1.44,0.912-2.736,2.736
		c0.096,7.968,0.072,13.597-0.072,16.884c-0.144,3.288-0.409,5.292-0.792,6.012c-0.385,0.72-1.008,2.063-1.872,4.032
		c-0.241,0.623-0.553,0.936-0.936,0.936c-0.385,0-1.069-0.493-2.052-1.476c-0.984-0.984-3.805-4.308-8.46-9.972
		c-1.104,0.673-1.944,1.008-2.52,1.008c-0.576,0-1.033-0.756-1.368-2.268c-0.336-1.512-0.504-2.628-0.504-3.348
		c0-1.296,0.288-2.088,0.864-2.376c2.063-0.864,4.487-2.22,7.272-4.068c2.783-1.848,4.727-3.54,5.832-5.076
		c0-0.528-0.144-1.08-0.432-1.656c-1.728,0.769-2.941,1.152-3.636,1.152c-0.697,0-1.044-0.335-1.044-1.008
		c0-0.671,0.108-1.607,0.324-2.808c0.216-1.2,0.407-2.027,0.576-2.484c0.167-0.456,0.335-0.72,0.504-0.792
		c0.167-0.072,0.492-0.108,0.972-0.108c1.248,0,2.651-1.188,4.212-3.564c1.559-2.376,2.34-4.428,2.34-6.156
		c0-1.008-0.313-1.512-0.936-1.512c-0.288,0-0.588,0.18-0.9,0.54c-0.313,0.36-0.54,0.828-0.684,1.404
		c-0.529,2.208-1.476,4.165-2.844,5.868c-1.368,1.705-2.941,3.373-4.716,5.004c-1.776,1.632-3.157,2.448-4.14,2.448
		c-0.984,0-1.681-0.443-2.088-1.332c-0.408-0.888-0.612-2.184-0.612-3.888c0-1.703,0.083-2.724,0.252-3.06
		c0.167-0.335,0.6-0.636,1.296-0.9c0.695-0.263,1.656-0.852,2.88-1.764c1.224-0.911,1.836-1.728,1.836-2.448
		c0-0.72-0.277-1.343-0.828-1.872c-0.552-0.528-0.828-0.911-0.828-1.152c0-0.24,0.167-0.36,0.504-0.36
		c0.768,0,2.304,0.601,4.608,1.8c0.912-0.24,2.688-1.248,5.328-3.024c0.24-0.144,0.504-0.216,0.792-0.216
		c0.816,0,2.027,0.612,3.636,1.836c1.607,1.224,2.412,2.689,2.412,4.392c0,1.705-0.457,2.916-1.368,3.636
		c-0.576,0.48-1.393,1.38-2.448,2.7c-1.056,1.321-1.92,2.533-2.592,3.636c1.343,0.72,2.063,2.041,2.16,3.96
		C100.584,30.379,101.399,29.682,102.168,28.914z M95.76,39.21c-0.288-0.096-0.552-0.144-0.792-0.144
		c-0.672,0-1.296,0.48-1.872,1.44c-1.057,1.776-3.168,4.44-6.336,7.992c1.296,1.2,2.652,2.148,4.068,2.844
		c1.415,0.696,2.484,1.044,3.204,1.044c0.72,0,1.175-0.108,1.368-0.324c0.191-0.216,0.312-1.98,0.36-5.292l0.072-3.168
		C95.832,42.306,95.807,40.842,95.76,39.21z M116.352,44.25c-0.048-0.479-0.072-0.936-0.072-1.368c0-1.919,0.54-2.88,1.62-2.88
		s2.088,0.804,3.024,2.412c0.936,1.608,1.404,3.229,1.404,4.86c0,0.385-0.108,1.152-0.324,2.304
		c-0.216,1.152-0.421,1.728-0.612,1.728c-0.192,0-0.36-0.096-0.504-0.288c-1.152-1.44-2.185-2.496-3.096-3.168
		c-1.584,1.584-3.456,3.841-5.616,6.768c-0.528,0.72-1.02,1.08-1.476,1.08c-0.457,0-1.116-0.925-1.98-2.772
		c-0.864-1.847-1.296-3.467-1.296-4.86c0-1.055,0.312-2.04,0.936-2.952c0.624-0.911,1.188-1.991,1.692-3.24
		c0.504-1.248,0.996-2.94,1.476-5.076c0.479-2.135,0.72-3.528,0.72-4.176s-0.205-1.379-0.612-2.196
		c-0.409-0.815-0.984-1.548-1.728-2.196c-0.745-0.648-1.116-1.032-1.116-1.152c0-0.12,0.096-0.18,0.288-0.18
		c0.432,0,1.355,0.18,2.772,0.54c1.415,0.36,2.556,0.948,3.42,1.764c0.864,0.816,1.296,1.896,1.296,3.24
		c0,1.008-0.493,3.216-1.476,6.624c-0.984,3.409-1.62,5.521-1.908,6.336C114.72,45.258,115.776,44.875,116.352,44.25z M115.2,21.498
		c1.487,0,2.88,0.552,4.176,1.656c1.296,1.105,2.063,2.424,2.304,3.96c0.527,3.168,2.111,6.132,4.752,8.892
		c2.639,2.761,6.503,5.605,11.592,8.532c1.584,0.912,2.724,1.681,3.42,2.304c0.695,0.625,1.224,1.393,1.584,2.304
		c0.36,0.912,0.54,1.609,0.54,2.088c0,0.48-0.552,0.72-1.656,0.72c-2.545,0-5.088-0.288-7.632-0.864
		c-2.112-0.479-3.708-1.211-4.788-2.196c-1.08-0.983-2.964-4.02-5.652-9.108c-1.632-3.215-3.384-7.272-5.256-12.168
		c-0.529-1.343-1.152-2.315-1.872-2.916c-0.72-0.6-1.872-0.972-3.456-1.116c-0.673-0.096-1.008-0.324-1.008-0.684
		s0.299-0.684,0.9-0.972C113.748,21.642,114.432,21.498,115.2,21.498z"/>
	<path d="M166.824,12.354c1.392-2.495,3.323-4.38,5.796-5.652c2.472-1.271,4.523-1.908,6.156-1.908c1.631,0,3.3,0.817,5.004,2.448
		c1.704,1.633,2.556,2.977,2.556,4.032c0,0.385-0.12,0.792-0.36,1.224c-2.353,3.936-3.6,6.624-3.744,8.064
		c1.536,0.241,2.652,0.54,3.348,0.9c0.695,0.36,1.044,0.84,1.044,1.44c0,0.601-0.36,1.057-1.08,1.368
		c-0.72,0.313-2.1,1.2-4.14,2.664c-2.041,1.465-3.684,2.509-4.932,3.132c-0.048,0.241-0.072,0.457-0.072,0.648
		c0,0.192,0.155,0.288,0.468,0.288c0.312,0,0.936-0.191,1.872-0.576c0.936-0.383,1.715-0.576,2.34-0.576
		c1.392,0,2.567,0.468,3.528,1.404c0.959,0.936,1.44,2.172,1.44,3.708c0,1.537-0.804,3.301-2.412,5.292
		c-1.609,1.992-3.541,3.324-5.796,3.996c0,1.152-0.072,2.16-0.216,3.024c0.767,0.529,1.476,0.792,2.124,0.792
		s1.368-0.684,2.16-2.052c0.792-1.368,1.764-3.564,2.916-6.588c0.239-0.576,0.432-0.864,0.576-0.864s0.216,0.108,0.216,0.324
		c0,0.216-0.097,0.588-0.288,1.116c-0.192,0.529-0.288,1.128-0.288,1.8l0.216,2.664c0,1.632-0.144,2.7-0.432,3.204
		c-0.288,0.504-0.432,1.056-0.432,1.656c0,0.601,0.06,1.188,0.18,1.764c0.12,0.576,0.18,1.033,0.18,1.368
		c0,0.768-0.336,1.152-1.008,1.152c-2.208,0-4.248-0.911-6.12-2.736c-0.241,2.592-0.552,4.896-0.936,6.912
		c-0.385,2.016-0.66,3.179-0.828,3.492c-0.168,0.312-0.396,0.468-0.684,0.468c-0.288,0-0.648-0.216-1.08-0.648
		c-2.257-2.448-4.417-4.608-6.48-6.48c-0.673,1.008-1.489,1.991-2.448,2.952c-0.961,0.96-1.692,1.44-2.196,1.44
		c-0.504,0-0.949-1.068-1.332-3.204c-0.385-2.135-0.576-3.611-0.576-4.428c0-0.815,0.167-1.32,0.504-1.512
		c1.199-0.72,1.8-1.548,1.8-2.484s0.167-1.404,0.504-1.404c0.576,0,1.512,1.056,2.808,3.168c2.399-0.528,4.56-1.176,6.48-1.944
		c0-1.68-0.048-2.855-0.144-3.528c-1.825-0.623-3.289-1.44-4.392-2.448c-0.625,0.673-1.74,1.548-3.348,2.628
		c-1.608,1.08-2.628,1.62-3.06,1.62c-0.432,0-0.745-0.42-0.936-1.26c-0.192-0.839-0.288-1.476-0.288-1.908
		c0-1.104,0.72-2.567,2.16-4.392c1.44-1.824,4.655-5.4,9.648-10.728c-0.672,0.097-3.972,1.872-9.9,5.328
		c-5.929,3.456-9.36,5.497-10.296,6.12c-0.936,0.625-1.813,1.537-2.628,2.736c-0.192,0.288-0.409,0.432-0.648,0.432
		c-0.529,0-1.044-0.684-1.548-2.052c-0.504-1.368-0.756-2.292-0.756-2.772c0-0.479,0.119-0.828,0.36-1.044
		c0.24-0.216,0.672-0.468,1.296-0.756c3.407-1.487,8.591-4.176,15.552-8.064c-1.249-2.976-1.872-5.208-1.872-6.696
		c0-0.528,0.12-1.188,0.36-1.98c0.239-0.792,0.36-1.944,0.36-3.456s-0.144-2.472-0.432-2.88c-0.288-0.407-0.432-0.72-0.432-0.936
		c0-0.216,0.312-0.324,0.936-0.324C163.775,10.842,164.999,11.346,166.824,12.354z M173.16,49.434c-1.249,0-2.929,1.584-5.04,4.752
		c1.248,0.527,2.315,0.792,3.204,0.792c0.887,0,1.427-0.265,1.62-0.792c0.191-0.528,0.288-1.224,0.288-2.088
		C173.232,51.234,173.207,50.346,173.16,49.434z M168.48,23.802c1.824-1.487,2.736-2.759,2.736-3.816
		c0-0.671-0.252-1.008-0.756-1.008s-1.021,0.216-1.548,0.648c-0.385,0.864-0.576,1.656-0.576,2.376S168.383,23.323,168.48,23.802z
		 M178.128,16.674c1.152-3.935,1.728-6.228,1.728-6.876s-0.216-0.972-0.648-0.972s-1.573,0.205-3.42,0.612
		c-1.849,0.408-3.289,0.997-4.32,1.764c-1.033,0.768-1.764,1.944-2.196,3.528c0.815-0.335,1.8-0.504,2.952-0.504
		c1.152,0,2.292,0.228,3.42,0.684C176.771,15.367,177.599,15.954,178.128,16.674z M172.944,42.306c0-1.104-0.144-2.232-0.432-3.384
		c-0.432-0.096-0.817-0.144-1.152-0.144c-0.864,0-1.512,0.48-1.944,1.44C169.704,41.082,170.879,41.778,172.944,42.306z
		 M178.2,40.434c1.008-0.384,1.823-1.379,2.448-2.988c0.624-1.607,0.936-2.916,0.936-3.924c0-1.104-0.36-1.656-1.08-1.656
		c-0.336,0-0.601,0.121-0.792,0.36c-0.72,0.864-1.752,1.632-3.096,2.304c-0.097,0.241-0.144,0.48-0.144,0.72
		c0,0.625,0.432,1.177,1.296,1.656c0.384,0.241,0.576,0.673,0.576,1.296C178.344,38.826,178.295,39.57,178.2,40.434z M200.808,37.41
		c1.392,0.241,2.399,0.516,3.024,0.828c0.623,0.313,1.319,0.961,2.088,1.944c0.768,0.984,1.68,1.86,2.736,2.628
		c0.432,0.336,0.647,0.84,0.647,1.512c0,0.673-0.144,1.285-0.432,1.836c-0.288,0.553-1.332,1.944-3.132,4.176
		s-3.661,4.237-5.58,6.012c-1.92,1.775-3.888,3.324-5.904,4.644c-2.016,1.32-4.14,2.459-6.372,3.42
		c-2.232,0.959-3.625,1.44-4.176,1.44c-0.552,0-0.828-0.169-0.828-0.504c0-0.336,0.36-0.745,1.08-1.224
		c4.848-3.168,9.227-7.38,13.14-12.636c3.912-5.256,5.868-8.483,5.868-9.684c0-0.623-0.408-1.163-1.224-1.62
		c-0.817-0.456-1.561-0.684-2.232-0.684c-0.673,0-1.573,0.432-2.7,1.296c-1.128,0.864-2.749,2.329-4.86,4.392
		c-0.432,0.385-0.756,0.576-0.972,0.576s-0.324-0.131-0.324-0.396c0-0.263,0.036-0.6,0.108-1.008
		c0.072-0.407,0.108-0.983,0.108-1.728c0-0.744-0.288-1.62-0.864-2.628c-0.192-0.288-0.288-0.659-0.288-1.116
		c0-0.456,0.312-0.875,0.936-1.26c2.688-1.728,4.704-3.6,6.048-5.616c1.343-2.016,2.016-3.479,2.016-4.392
		c0-1.104-0.769-1.656-2.304-1.656c-0.432,0-1.116,0.241-2.052,0.72c-0.936,0.48-1.8,1.044-2.592,1.692s-1.332,0.972-1.62,0.972
		c-0.576,0-0.864-0.875-0.864-2.628c0-1.751,0.108-2.927,0.324-3.528c0.216-0.6,0.612-1.14,1.188-1.62
		c1.68-1.343,3.336-3.312,4.968-5.904c1.631-2.592,2.448-4.176,2.448-4.752c0-0.576-0.408-0.864-1.224-0.864
		c-0.385,0-0.781,0.265-1.188,0.792c-0.409,0.529-0.949,1.429-1.62,2.7c-0.673,1.272-1.105,1.908-1.296,1.908
		c-0.192,0-0.288-0.144-0.288-0.432c0-0.576,0.479-1.919,1.44-4.032c0.959-2.111,2.063-3.168,3.312-3.168
		c1.248,0,2.952,0.612,5.112,1.836c2.16,1.224,3.24,2.412,3.24,3.564c0,0.432-0.145,0.889-0.432,1.368
		c-0.288,0.48-1.177,1.62-2.665,3.42c-1.488,1.8-3.144,3.541-4.968,5.22c5.423,2.544,8.136,5.016,8.136,7.416
		c0,0.576-0.145,0.984-0.433,1.224C203.328,33.642,201.816,35.491,200.808,37.41z"/>
</g>
<g>
</g>
<g>
</g>
<g>
</g>
<g>
</g>
<g>
</g>
<g>
</g>
</svg>
