<?xml version="1.0" encoding="utf-8"?>
<!-- Generator: Adobe Illustrator 16.0.0, SVG Export Plug-In . SVG Version: 6.00 Build 0)  -->
<!DOCTYPE svg PUBLIC "-//W3C//DTD SVG 1.1//EN" "http://www.w3.org/Graphics/SVG/1.1/DTD/svg11.dtd">
<svg version="1.1" id="图层_1" xmlns="http://www.w3.org/2000/svg" xmlns:xlink="http://www.w3.org/1999/xlink" x="0px" y="0px"
	 width="218.141px" height="69.773px" viewBox="0 0 218.141 69.773" enable-background="new 0 0 218.141 69.773"
	 xml:space="preserve">
<g>
	<path fill="#FFFFFF" d="M24.696,18.114c1.487-1.486,2.232-2.639,2.232-3.455c0-0.479-0.288-1.067-0.864-1.765
		C25.488,12.198,25.2,11.61,25.2,11.13s0.299-0.72,0.899-0.72s1.883,0.385,3.853,1.151c1.967,0.769,3.431,1.682,4.392,2.736
		c0.959,1.057,1.44,2.063,1.44,3.023c0,0.962-0.134,1.718-0.396,2.269c-0.265,0.552-0.637,0.913-1.116,1.08
		c-0.479,0.169-1.285,0.637-2.412,1.403c-1.128,0.77-1.991,1.634-2.592,2.593c-0.601,0.96-0.899,1.848-0.899,2.664
		c0,0.815,0.359,2.399,1.08,4.752c0.959-0.288,1.774-1.104,2.447-2.448c0.24-0.527,0.456-0.792,0.648-0.792
		c0.19,0,0.288,0.349,0.288,1.044c0,0.697-0.169,1.537-0.504,2.52c-0.336,0.984-0.926,2.028-1.765,3.133
		c-0.84,1.104-1.668,2.195-2.483,3.275c-0.817,1.08-1.38,2.137-1.692,3.168c-0.313,1.033-0.468,2.726-0.468,5.076l0.288,8.568
		c0,4.271-0.386,6.408-1.152,6.408c-0.385,0-1.188-0.792-2.412-2.376c-1.224-1.585-1.836-3.456-1.836-5.616s0.383-5.208,1.152-9.145
		c-2.305,1.97-4.368,3.864-6.192,5.688c-0.432,0.432-0.913,0.647-1.439,0.647c-0.529,0-0.973-0.299-1.332-0.899
		c-0.36-0.601-0.54-1.464-0.54-2.592s0.167-1.991,0.504-2.593c0.335-0.6,1.104-1.332,2.304-2.195c5.52-3.937,8.28-7.968,8.28-12.097
		c0-0.432-0.025-0.863-0.072-1.296c-4.561,4.85-8.112,7.272-10.656,7.272c-1.584,0-2.376-1.056-2.376-3.168
		c0-1.056,0.264-1.584,0.792-1.584l0.721,0.071c0.383,0,0.767-0.144,1.151-0.432c0.384-0.288,1.32-1.284,2.809-2.988
		c1.486-1.703,3.407-4.02,5.76-6.947c-1.249-0.864-2.978-1.297-5.185-1.297l-3.023,0.145c-0.432,0-0.792-0.119-1.08-0.36
		c-0.288-0.239-0.432-0.527-0.432-0.863c0-0.721,0.587-1.429,1.764-2.124c1.176-0.695,2.652-1.044,4.428-1.044
		C20.688,16.242,22.871,16.866,24.696,18.114z M54.648,47.778c-1.008-2.255-1.512-3.539-1.512-3.852s0.095-0.468,0.288-0.468
		c0.479,0,1.584,0.504,3.312,1.512c1.729,1.008,3.18,2.353,4.356,4.032c1.176,1.681,1.764,3.456,1.764,5.328
		c0,0.959-0.191,1.715-0.576,2.268c-0.385,0.551-0.911,0.828-1.584,0.828c-1.008,0-1.8-0.36-2.376-1.08
		c-0.575-0.72-1.416-2.255-2.52-4.608c-3.36,0-6.132,0.266-8.316,0.792c-2.185,0.529-4.476,1.705-6.876,3.528
		c-1.487,1.152-2.699,1.729-3.636,1.729c-0.936,0-1.692-0.949-2.268-2.845c-0.576-1.896-0.864-3.179-0.864-3.852
		c0-0.671,0.335-0.959,1.008-0.864c0.671,0.097,1.343,0.145,2.016,0.145c1.584,0,3.071-0.443,4.465-1.332
		c1.392-0.889,2.184-2.725,2.376-5.509c-1.537,0.625-2.677,0.937-3.42,0.937c-0.745,0-1.682-0.659-2.809-1.98
		c-1.128-1.318-1.896-3.708-2.304-7.164c-0.408-3.455-0.612-5.963-0.612-7.523c0-1.56,0.288-2.34,0.864-2.34s1.68,1.032,3.312,3.096
		c1.969-1.152,4.08-2.328,6.336-3.528c0.191-2.351,0.288-4.319,0.288-5.903c0-3.696-0.575-5.544-1.728-5.544l-0.72,0.144
		c-0.433,0-0.648-0.6-0.648-1.8c0-1.199,1.008-1.8,3.024-1.8c0.911,0,2.016,0.479,3.312,1.439s2.027,1.825,2.196,2.592
		c0.168,0.77,0.252,1.944,0.252,3.528s-0.072,3.168-0.216,4.752c1.296-0.479,2.423-0.72,3.384-0.72c1.68,0,3.528,0.828,5.544,2.483
		c2.016,1.656,3.024,3.325,3.024,5.005c0,1.151-0.48,2.016-1.44,2.592c-0.576,0.336-1.404,1.249-2.484,2.735
		c-1.08,1.489-1.764,2.664-2.052,3.528c1.055,0.96,1.584,1.717,1.584,2.269s-0.889,0.756-2.664,0.611
		c-0.769-0.047-1.717-0.071-2.844-0.071c-1.128,0-2.316,0.216-3.564,0.647l-0.863,5.832c0.911-0.144,1.836-0.216,2.771-0.216
		C52.164,47.13,53.304,47.346,54.648,47.778z M44.712,31.65l-4.393,2.017c-0.287,1.487-0.432,2.725-0.432,3.708
		s0.216,1.476,0.648,1.476c1.055,0,2.327-0.456,3.815-1.368C44.592,35.466,44.712,33.522,44.712,31.65z M50.04,34.458
		c-0.145,0.097-0.216,0.229-0.216,0.396c0,0.168,0.047,0.35,0.144,0.54c0.24-0.144,0.36-0.324,0.36-0.54S50.231,34.506,50.04,34.458
		z M53.856,26.97c-0.863,0.288-1.992,0.841-3.384,1.656c-0.192,1.632-0.288,2.761-0.288,3.384c0,0.625,0.167,1.08,0.504,1.368
		c0.335,0.288,0.576,0.432,0.721,0.432c0.432,0,1.127-0.73,2.088-2.196c0.959-1.463,1.439-2.53,1.439-3.203
		s-0.107-1.104-0.324-1.297C54.396,26.923,54.144,26.875,53.856,26.97z"/>
	<path fill="#FFFFFF" d="M102.168,28.914c-0.098-1.152-0.48-2.353-1.152-3.601c-0.191-0.335-0.288-0.623-0.288-0.863
		c0-0.527,0.768-1.319,2.305-2.377c6-4.176,9.468-7.03,10.403-8.567c0.937-1.536,1.404-2.556,1.404-3.061
		c0-0.504-0.12-0.756-0.36-0.756c-0.241,0-0.601,0.313-1.08,0.937c-0.479,0.625-0.816,0.936-1.008,0.936s-0.288-0.167-0.288-0.504
		c0-2.399,1.32-3.6,3.96-3.6c1.44,0,2.796,0.336,4.068,1.008c1.271,0.673,1.908,1.561,1.908,2.664c0,0.385-0.133,0.828-0.396,1.332
		c-0.265,0.504-2.101,2.027-5.508,4.572c-3.409,2.544-5.76,4.128-7.056,4.752s-3.097,1.32-5.4,2.088
		c-0.72,0.24-1.08,0.528-1.08,0.863c0,0.625,0.937,1.297,2.809,2.017c2.304,0.864,3.455,2.592,3.455,5.184s-0.3,5.208-0.899,7.849
		c-0.602,2.64-1.548,5.244-2.844,7.812c-1.296,2.568-2.149,4.057-2.557,4.464c-0.408,0.408-0.731,0.612-0.972,0.612
		c-0.816,0-1.224-0.983-1.224-2.952c0-0.528,0.06-1.68,0.18-3.456c0.12-1.775,0.372-2.664,0.756-2.664
		c0.144,0,0.383,0.216,0.72,0.648c0.672-1.248,1.248-3.013,1.729-5.292c0.479-2.279,0.72-3.984,0.72-5.112
		c0-1.127-0.192-2.099-0.576-2.916c-0.385-0.816-0.84-1.224-1.368-1.224s-1.439,0.912-2.735,2.735
		c0.096,7.969,0.071,13.598-0.072,16.885s-0.409,5.292-0.792,6.012c-0.385,0.72-1.008,2.063-1.872,4.032
		c-0.241,0.623-0.553,0.936-0.936,0.936c-0.386,0-1.069-0.493-2.053-1.476c-0.983-0.984-3.805-4.309-8.46-9.973
		c-1.104,0.673-1.943,1.008-2.52,1.008s-1.033-0.756-1.368-2.268c-0.336-1.512-0.504-2.628-0.504-3.348
		c0-1.296,0.288-2.088,0.864-2.376c2.063-0.864,4.486-2.221,7.271-4.068c2.783-1.848,4.728-3.54,5.832-5.076
		c0-0.527-0.144-1.08-0.432-1.656c-1.729,0.77-2.941,1.152-3.636,1.152c-0.697,0-1.045-0.335-1.045-1.008
		c0-0.671,0.108-1.607,0.324-2.808s0.407-2.027,0.576-2.484c0.167-0.456,0.335-0.72,0.504-0.792
		c0.167-0.072,0.492-0.108,0.972-0.108c1.248,0,2.651-1.188,4.213-3.563c1.559-2.376,2.34-4.428,2.34-6.156
		c0-1.008-0.313-1.512-0.937-1.512c-0.288,0-0.588,0.18-0.899,0.54c-0.313,0.359-0.54,0.828-0.685,1.403
		c-0.528,2.208-1.476,4.165-2.844,5.868c-1.368,1.705-2.941,3.373-4.716,5.004c-1.776,1.633-3.157,2.448-4.141,2.448
		s-1.681-0.443-2.088-1.332c-0.407-0.888-0.611-2.184-0.611-3.888c0-1.703,0.083-2.725,0.252-3.061
		c0.167-0.335,0.6-0.636,1.296-0.899c0.694-0.264,1.656-0.853,2.88-1.765c1.224-0.91,1.836-1.728,1.836-2.447
		c0-0.721-0.277-1.344-0.828-1.872c-0.552-0.528-0.828-0.911-0.828-1.152c0-0.24,0.167-0.36,0.504-0.36
		c0.769,0,2.305,0.602,4.608,1.801c0.912-0.24,2.688-1.248,5.328-3.024c0.24-0.144,0.504-0.216,0.792-0.216
		c0.815,0,2.026,0.612,3.636,1.836c1.607,1.224,2.412,2.689,2.412,4.392c0,1.705-0.457,2.916-1.368,3.637
		c-0.576,0.479-1.393,1.38-2.448,2.699c-1.056,1.321-1.92,2.533-2.592,3.637c1.343,0.72,2.063,2.041,2.16,3.96
		C100.584,30.379,101.399,29.682,102.168,28.914z M95.76,39.21c-0.288-0.097-0.552-0.145-0.792-0.145
		c-0.672,0-1.296,0.48-1.872,1.44c-1.057,1.775-3.168,4.439-6.336,7.992c1.296,1.199,2.652,2.147,4.068,2.844
		c1.415,0.696,2.483,1.044,3.204,1.044c0.72,0,1.175-0.108,1.367-0.324c0.191-0.216,0.313-1.979,0.36-5.292l0.072-3.168
		C95.832,42.306,95.807,40.842,95.76,39.21z M116.352,44.25c-0.048-0.479-0.072-0.937-0.072-1.368c0-1.919,0.54-2.88,1.62-2.88
		s2.088,0.804,3.024,2.412c0.936,1.607,1.404,3.229,1.404,4.859c0,0.386-0.108,1.152-0.324,2.305
		c-0.216,1.151-0.421,1.728-0.612,1.728s-0.359-0.096-0.504-0.288c-1.152-1.439-2.185-2.496-3.096-3.168
		c-1.584,1.584-3.456,3.841-5.616,6.769c-0.528,0.72-1.02,1.079-1.476,1.079c-0.457,0-1.116-0.925-1.98-2.771
		s-1.296-3.467-1.296-4.86c0-1.055,0.312-2.04,0.936-2.952c0.624-0.91,1.188-1.99,1.692-3.239c0.504-1.248,0.996-2.94,1.476-5.076
		c0.479-2.135,0.721-3.528,0.721-4.176c0-0.648-0.205-1.379-0.612-2.196c-0.409-0.815-0.984-1.548-1.728-2.196
		c-0.745-0.647-1.116-1.032-1.116-1.151c0-0.12,0.096-0.181,0.288-0.181c0.432,0,1.354,0.181,2.771,0.54
		c1.415,0.36,2.557,0.948,3.42,1.765c0.864,0.815,1.296,1.896,1.296,3.239c0,1.009-0.492,3.217-1.476,6.624
		c-0.984,3.409-1.62,5.521-1.908,6.336C114.72,45.258,115.776,44.875,116.352,44.25z M115.2,21.498c1.486,0,2.88,0.552,4.176,1.655
		c1.296,1.105,2.063,2.425,2.304,3.96c0.527,3.168,2.111,6.133,4.752,8.893c2.639,2.761,6.503,5.604,11.592,8.532
		c1.584,0.912,2.725,1.681,3.42,2.304c0.695,0.625,1.225,1.393,1.584,2.304c0.36,0.912,0.54,1.609,0.54,2.088
		c0,0.48-0.552,0.721-1.655,0.721c-2.545,0-5.088-0.288-7.633-0.864c-2.111-0.479-3.708-1.211-4.787-2.196
		c-1.08-0.982-2.965-4.02-5.652-9.107c-1.632-3.216-3.384-7.272-5.256-12.168c-0.529-1.344-1.152-2.315-1.872-2.916
		s-1.872-0.973-3.456-1.116c-0.673-0.097-1.008-0.324-1.008-0.685c0-0.359,0.299-0.684,0.899-0.972S114.432,21.498,115.2,21.498z"/>
	<path fill="#FFFFFF" d="M166.824,12.354c1.392-2.495,3.322-4.38,5.796-5.651c2.472-1.271,4.522-1.908,6.155-1.908
		c1.632,0,3.301,0.816,5.004,2.448c1.704,1.633,2.557,2.977,2.557,4.031c0,0.386-0.12,0.792-0.36,1.225
		c-2.353,3.936-3.6,6.624-3.744,8.063c1.536,0.241,2.652,0.54,3.349,0.9c0.694,0.359,1.044,0.84,1.044,1.439
		c0,0.602-0.36,1.058-1.08,1.368c-0.72,0.313-2.101,1.2-4.141,2.664c-2.041,1.465-3.684,2.509-4.932,3.132
		c-0.048,0.241-0.072,0.457-0.072,0.648s0.155,0.288,0.469,0.288c0.312,0,0.936-0.191,1.872-0.576
		c0.936-0.383,1.715-0.576,2.34-0.576c1.392,0,2.566,0.468,3.527,1.404c0.959,0.936,1.44,2.172,1.44,3.708
		c0,1.537-0.804,3.301-2.412,5.292c-1.609,1.992-3.541,3.324-5.796,3.996c0,1.151-0.072,2.16-0.216,3.023
		c0.767,0.529,1.476,0.792,2.124,0.792c0.647,0,1.368-0.684,2.16-2.052s1.764-3.563,2.916-6.588
		c0.238-0.576,0.432-0.864,0.575-0.864c0.145,0,0.217,0.108,0.217,0.324s-0.098,0.588-0.288,1.116
		c-0.192,0.528-0.288,1.128-0.288,1.8l0.216,2.664c0,1.632-0.145,2.7-0.432,3.204c-0.288,0.504-0.433,1.056-0.433,1.656
		s0.061,1.188,0.18,1.764c0.12,0.576,0.181,1.033,0.181,1.368c0,0.768-0.336,1.151-1.008,1.151c-2.208,0-4.248-0.911-6.12-2.735
		c-0.241,2.592-0.553,4.896-0.937,6.912c-0.385,2.016-0.66,3.179-0.828,3.491s-0.396,0.469-0.684,0.469s-0.648-0.217-1.08-0.648
		c-2.257-2.448-4.417-4.608-6.479-6.479c-0.674,1.008-1.489,1.99-2.448,2.951c-0.961,0.96-1.692,1.44-2.196,1.44
		s-0.949-1.068-1.332-3.204c-0.385-2.135-0.576-3.611-0.576-4.428c0-0.815,0.167-1.32,0.504-1.513
		c1.199-0.72,1.801-1.548,1.801-2.483c0-0.937,0.167-1.404,0.504-1.404c0.575,0,1.512,1.057,2.808,3.168
		c2.399-0.527,4.56-1.176,6.48-1.943c0-1.681-0.049-2.855-0.145-3.528c-1.825-0.623-3.289-1.44-4.392-2.448
		c-0.625,0.673-1.74,1.548-3.349,2.628c-1.607,1.08-2.628,1.62-3.06,1.62s-0.745-0.42-0.937-1.26
		c-0.191-0.839-0.287-1.477-0.287-1.908c0-1.104,0.72-2.567,2.159-4.392c1.44-1.824,4.655-5.4,9.648-10.729
		c-0.672,0.097-3.972,1.872-9.9,5.328s-9.359,5.497-10.296,6.12c-0.936,0.625-1.813,1.537-2.628,2.736
		c-0.191,0.287-0.409,0.432-0.647,0.432c-0.529,0-1.044-0.684-1.549-2.052c-0.504-1.368-0.756-2.292-0.756-2.772
		c0-0.479,0.119-0.828,0.36-1.044c0.24-0.216,0.672-0.468,1.296-0.756c3.407-1.487,8.591-4.176,15.552-8.064
		c-1.249-2.976-1.872-5.208-1.872-6.695c0-0.528,0.12-1.188,0.36-1.98c0.239-0.792,0.36-1.943,0.36-3.456
		c0-1.512-0.145-2.472-0.433-2.88c-0.288-0.407-0.432-0.72-0.432-0.936s0.312-0.324,0.936-0.324
		C163.775,10.842,164.999,11.346,166.824,12.354z M173.16,49.434c-1.249,0-2.93,1.584-5.04,4.752
		c1.248,0.527,2.314,0.792,3.204,0.792c0.887,0,1.427-0.265,1.619-0.792c0.191-0.527,0.288-1.224,0.288-2.088
		S173.207,50.346,173.16,49.434z M168.48,23.802c1.824-1.487,2.736-2.759,2.736-3.816c0-0.671-0.252-1.008-0.756-1.008
		s-1.021,0.216-1.548,0.648c-0.386,0.863-0.576,1.655-0.576,2.376C168.336,22.722,168.383,23.323,168.48,23.802z M178.128,16.674
		c1.151-3.936,1.728-6.229,1.728-6.876c0-0.648-0.216-0.972-0.647-0.972c-0.433,0-1.573,0.204-3.42,0.611
		c-1.85,0.408-3.289,0.997-4.32,1.765c-1.033,0.768-1.764,1.943-2.196,3.527c0.815-0.335,1.8-0.504,2.952-0.504
		s2.292,0.229,3.42,0.685C176.771,15.367,177.599,15.954,178.128,16.674z M172.944,42.306c0-1.104-0.144-2.232-0.432-3.384
		c-0.432-0.096-0.817-0.145-1.152-0.145c-0.863,0-1.512,0.48-1.943,1.44C169.704,41.082,170.879,41.778,172.944,42.306z
		 M178.2,40.434c1.008-0.384,1.822-1.379,2.447-2.988c0.624-1.606,0.937-2.916,0.937-3.924c0-1.104-0.36-1.655-1.08-1.655
		c-0.336,0-0.602,0.12-0.792,0.359c-0.72,0.864-1.752,1.632-3.096,2.304c-0.098,0.241-0.145,0.48-0.145,0.721
		c0,0.625,0.432,1.177,1.296,1.655c0.384,0.241,0.576,0.674,0.576,1.297C178.344,38.826,178.295,39.57,178.2,40.434z M200.808,37.41
		c1.393,0.24,2.399,0.516,3.024,0.827c0.623,0.313,1.318,0.961,2.088,1.944c0.768,0.984,1.68,1.86,2.736,2.628
		c0.432,0.336,0.646,0.84,0.646,1.512c0,0.674-0.144,1.285-0.432,1.837c-0.288,0.553-1.332,1.943-3.133,4.176
		c-1.8,2.231-3.66,4.236-5.579,6.012c-1.921,1.775-3.889,3.324-5.904,4.644c-2.017,1.32-4.14,2.459-6.372,3.421
		c-2.232,0.959-3.625,1.439-4.176,1.439c-0.553,0-0.828-0.169-0.828-0.504c0-0.336,0.359-0.745,1.08-1.224
		c4.848-3.168,9.227-7.38,13.14-12.637c3.912-5.256,5.868-8.482,5.868-9.684c0-0.623-0.408-1.163-1.224-1.62
		c-0.817-0.456-1.562-0.684-2.232-0.684c-0.673,0-1.573,0.432-2.7,1.296c-1.128,0.864-2.749,2.329-4.859,4.392
		c-0.433,0.385-0.757,0.576-0.973,0.576s-0.324-0.131-0.324-0.396c0-0.264,0.036-0.601,0.108-1.009
		c0.072-0.406,0.108-0.982,0.108-1.728c0-0.744-0.288-1.62-0.864-2.628c-0.192-0.288-0.288-0.659-0.288-1.116
		c0-0.456,0.313-0.875,0.936-1.26c2.688-1.729,4.704-3.601,6.049-5.616c1.343-2.016,2.016-3.479,2.016-4.392
		c0-1.104-0.769-1.656-2.304-1.656c-0.433,0-1.116,0.241-2.053,0.72c-0.936,0.48-1.8,1.044-2.592,1.692
		c-0.792,0.647-1.332,0.972-1.62,0.972c-0.575,0-0.863-0.875-0.863-2.628c0-1.751,0.107-2.927,0.323-3.528
		c0.217-0.6,0.612-1.14,1.188-1.62c1.68-1.343,3.336-3.312,4.968-5.903c1.631-2.593,2.448-4.177,2.448-4.752
		c0-0.576-0.408-0.864-1.224-0.864c-0.386,0-0.781,0.265-1.188,0.792c-0.409,0.529-0.949,1.429-1.62,2.7
		c-0.673,1.271-1.104,1.908-1.296,1.908c-0.192,0-0.288-0.145-0.288-0.433c0-0.576,0.479-1.919,1.44-4.032
		c0.959-2.11,2.063-3.168,3.312-3.168c1.248,0,2.952,0.612,5.112,1.836c2.16,1.225,3.24,2.412,3.24,3.564
		c0,0.432-0.146,0.889-0.433,1.368c-0.288,0.479-1.177,1.62-2.665,3.42c-1.487,1.8-3.144,3.541-4.968,5.22
		c5.423,2.544,8.136,5.017,8.136,7.416c0,0.576-0.145,0.984-0.433,1.225C203.328,33.642,201.816,35.491,200.808,37.41z"/>
</g>
</svg>
